# xmcd
#
# Track frame offsets:
#	150
#	10866
#	26404
#	47165
#	62076
#	72831
#	88500
#	102921
#	116431
#	128216
#	144546
#	155472
#	165394
#	176132
#	190521
#
# Disc length: 2702 seconds
#
# Revision: 1
# Processed by: cddbd v1.5.2PL0 Copyright (c) Steve Scherf et al.
# Submitted via: audiograbber 1.83.01
#
DISCID=bf0a8c0f
DTITLE=(JT) - Just Tracks JT086
DYEAR=1900
DGENRE=Karaoke
TTITLE0=Eddy Arnold - You Don't Know Me
TTITLE1=Marty Robbins - Don't Worry 'Bout Me Baby
TTITLE2=John Denver - Back Home Again
TTITLE3=Rosanne Cash - Tennessee Flat Top Box
TTITLE4=Patsy Cline - Seven Lonely Days
TTITLE5=Patsy Cline - Wayward Wind
TTITLE6=Steve Wariner - Lonely Women Make Good Lovers
TTITLE7=Emmylou Harris - Last Date
TTITLE8=Rosanne Cash - I Don't Want To Spoil The Party
TTITLE9=Ronstadt,Parton,Harris - To Know Him Is To Love Him
TTITLE10=Linda Ronstadt - Silver Threads and Golden Needles
TTITLE11=Charlie Rich - There Won't Be Anymore
TTITLE12=Emmylou Harris - Mr. Sandman
TTITLE13=Mark Chesnutt - Woman, Sensuous Woman
TTITLE14=Connie Francis - Everybody's Somebody's Fool
EXTD=
EXTT0=
EXTT1=
EXTT2=
EXTT3=
EXTT4=
EXTT5=
EXTT6=
EXTT7=
EXTT8=
EXTT9=
EXTT10=
EXTT11=
EXTT12=
EXTT13=
EXTT14=
PLAYORDER=
